<?xml version="1.0" standalone="no"?>
<svg viewBox="0 0 10 10"
     xmlns="http://www.w3.org/2000/svg">
    <line x1="1" y1="5" x2="5" y2="1"
          stroke-width="1" stroke="yellow" stroke-linecap="round" />
    <line x1="1" y1="5" x2="5" y2="9"
          stroke-width="1" stroke="yellow" stroke-linecap="round" />
    <line x1="9" y1="5" x2="5" y2="1"
          stroke-width="1" stroke="yellow" stroke-linecap="round" />
    <line x1="9" y1="5" x2="5" y2="9"
          stroke-width="1" stroke="yellow" stroke-linecap="round" />
    <polygon points="1,5 5,1 9,5 5,9" fill="yellow" />
    <line x1="1" y1="5" x2="5" y2="1"
          stroke-width="0.3" stroke="black" stroke-linecap="round" />
    <line x1="1" y1="5" x2="5" y2="9"
          stroke-width="0.3" stroke="black" stroke-linecap="round" />
    <line x1="9" y1="5" x2="5" y2="1"
          stroke-width="0.3" stroke="black" stroke-linecap="round" />
    <line x1="9" y1="5" x2="5" y2="9"
          stroke-width="0.3" stroke="black" stroke-linecap="round" />

    <g transform="translate(0, 0.2)">
        <path d="M 2.5 5 C 2.5 5, 2.9 4.9, 3.2 4.5 C 3.2 4.5,
                3.7 3.8,4.2 4.5 C 4.2 4.5, 4.5 4.9, 5 5"
            stroke-width="0" stroke="black" />
        <path d="M 2.5 5 C 2.5 5, 2.9 4.9, 3.2 4.5 C 3.2 4.5,
                3.7 3.8,4.2 4.5 C 4.2 4.5, 4.5 4.9, 5 5"
            stroke-width="0" stroke="black" transform="translate(2.5, 0)" />
        <polygon points="2.5,5.4 7.5,5.4 7.5,4.95 2.5,4.95" fill="black" />
    </g>
</svg>